<?xml version="1.0" encoding="iso-8859-1"?>
<!-- Uploaded to: SVG Repo, www.svgrepo.com, Generator: SVG Repo Mixer Tools -->
<svg version="1.1" id="Layer_1" xmlns="http://www.w3.org/2000/svg" xmlns:xlink="http://www.w3.org/1999/xlink" 
	 viewBox="0 0 512 512" xml:space="preserve">
<circle style="fill:#8AD5DD;" cx="256" cy="256" r="256"/>
<polygon style="fill:#FFFFFF;" points="115,68 115,444 353.92,444 353.92,400.92 397,400.92 397,68 "/>
<g>
	<polygon style="fill:#E0E0E0;" points="353.92,444 353.92,400.92 397,400.92 	"/>
	<rect x="159.824" y="324.016" style="fill:#E0E0E0;" width="189.848" height="7.832"/>
	<rect x="159.824" y="344.64" style="fill:#E0E0E0;" width="189.848" height="7.832"/>
	<rect x="159.824" y="365.232" style="fill:#E0E0E0;" width="189.848" height="7.832"/>
	<rect x="159.824" y="385.84" style="fill:#E0E0E0;" width="189.848" height="7.832"/>
</g>
<path style="fill:#DB2B42;" d="M251.976,129.504c-43.416,0-78.608,35.192-78.608,78.608s35.192,78.608,78.608,78.608
	s78.608-35.192,78.608-78.608h-78.608L251.976,129.504L251.976,129.504z"/>
<path style="fill:#2D2D2D;" d="M263.16,118.328v78.608h78.608C341.76,153.52,306.568,118.328,263.16,118.328z"/>
</svg>