<svg version="1.1" id="Layer_1" xmlns="http://www.w3.org/2000/svg" xmlns:xlink="http://www.w3.org/1999/xlink" x="0px" y="0px"
	 width="100%" viewBox="0 0 1598 1554" xml:space="preserve">
<path fill="#2394A2" opacity="1.000000" stroke="none" 
	d="
M1098.384644,153.611084 
	C1147.522583,176.989014 1193.066040,205.417892 1235.168091,239.295135 
	C1294.734375,287.224884 1345.229492,343.309082 1386.371216,407.802856 
	C1426.110840,470.098785 1455.115723,537.041931 1473.352783,608.615234 
	C1483.896851,649.996399 1490.483032,692.014160 1493.224731,734.676331 
	C1496.248413,781.729370 1494.562988,828.556396 1488.207275,875.244934 
	C1478.980957,943.019714 1459.966064,1007.942566 1431.363281,1070.060913 
	C1399.091553,1140.147461 1356.091309,1202.880249 1302.920898,1258.809204 
	C1260.389160,1303.547607 1212.624268,1341.751465 1159.986328,1373.702393 
	C1094.107178,1413.690308 1023.300720,1441.791992 947.880371,1457.942871 
	C912.508362,1465.517456 876.750977,1470.369507 840.587097,1472.203369 
	C803.240723,1474.096924 765.922791,1473.613525 728.758606,1469.731567 
	C674.249817,1464.037842 621.066589,1452.045532 569.403137,1433.630859 
	C527.559265,1418.716187 487.497192,1399.946045 449.242645,1377.354736 
	C410.248199,1354.326538 373.830566,1327.720337 340.072357,1297.561890 
	C282.420258,1246.057495 234.530151,1186.602905 196.680786,1119.188721 
	C162.870499,1058.968750 138.565140,995.067139 124.025131,927.519409 
	C116.799759,893.952881 112.087975,860.029297 109.815018,825.748596 
	C107.960167,797.773987 107.670296,769.753662 109.290649,741.831665 
	C113.810532,663.944885 130.366470,588.685608 160.224014,516.431274 
	C189.630753,445.267822 229.740814,380.847076 280.453796,322.937744 
	C334.817017,260.860199 398.362000,210.226852 470.722260,170.775131 
	C529.111145,138.940811 590.893127,115.862228 656.022827,102.119301 
	C687.967896,95.378609 720.233704,90.888916 752.861145,88.640495 
	C792.880127,85.882706 832.846680,86.366020 872.667603,90.372643 
	C927.689575,95.908737 981.348389,108.072433 1033.526489,126.584785 
	C1055.520996,134.388214 1076.963501,143.476044 1098.384644,153.611084 
z"/>
<path fill="#F7F9FA" opacity="1.000000" stroke="none" 
	d="
M727.953613,445.928528 
	C739.058472,441.251862 750.051819,437.426575 761.505249,435.139313 
	C764.409729,434.559265 765.318665,433.398804 765.275391,430.527161 
	C765.129883,420.863953 765.175171,411.196869 765.233276,401.531799 
	C765.303650,389.814697 771.136414,383.988861 782.718628,383.977051 
	C795.383667,383.964142 808.073364,384.457764 820.705383,383.812378 
	C829.852783,383.345032 838.003296,390.247375 837.883606,400.924103 
	C837.773315,410.754913 837.940735,420.588959 837.812439,430.419312 
	C837.776306,433.188812 838.463562,434.469482 841.452759,435.118835 
	C862.784607,439.752686 882.692139,448.000275 901.188538,459.571686 
	C904.162476,461.432190 906.070862,461.638611 908.693542,458.804138 
	C914.913818,452.081451 921.515625,445.708679 928.029968,439.261963 
	C936.235596,431.141602 945.339722,431.133423 953.438904,439.187744 
	C961.946655,447.648224 970.452271,456.111145 978.911987,464.619568 
	C987.405701,473.162231 987.383667,482.272736 978.895325,490.824341 
	C972.438477,497.329285 966.014343,503.868896 959.440735,510.254211 
	C957.374695,512.261047 956.732544,513.668213 958.506470,516.500244 
	C970.169495,535.120239 978.523865,555.170166 983.251282,576.646423 
	C984.025391,580.162781 985.551025,581.012146 988.953064,580.929810 
	C998.779297,580.691895 1008.615601,580.787354 1018.447021,580.868225 
	C1027.717285,580.944519 1033.915039,586.082275 1034.242188,595.261230 
	C1034.758057,609.733948 1034.772095,624.247803 1034.320068,638.723022 
	C1034.038452,647.737061 1027.651489,653.044128 1018.438171,653.128845 
	C1008.440247,653.220703 998.439453,653.250305 988.443176,653.094788 
	C985.511230,653.049194 984.016479,653.707153 983.345459,656.876038 
	C978.749573,678.582214 970.176880,698.712830 958.452148,717.486328 
	C956.674683,720.332458 957.401611,721.757690 959.448120,723.750122 
	C966.134033,730.259155 972.689819,736.902832 979.251770,743.538086 
	C987.259460,751.635437 987.292725,760.900085 979.259094,769.025024 
	C970.706116,777.675415 962.095886,786.270386 953.427856,794.805420 
	C945.188232,802.918579 936.216614,802.866150 928.020691,794.732910 
	C921.396912,788.159851 914.752380,781.603577 908.296631,774.867798 
	C906.245300,772.727478 904.718323,772.222961 902.044250,773.941895 
	C883.515381,785.852844 863.287476,793.766418 841.885925,798.674072 
	C838.489502,799.453003 837.789795,800.938782 837.803650,804.075134 
	C837.910522,828.238220 837.926392,852.402283 837.789551,876.565002 
	C837.770386,879.943848 838.503357,881.203918 842.134094,881.085022 
	C850.457458,880.812744 858.796021,881.033020 867.127930,880.978210 
	C869.569397,880.962158 871.779785,881.159668 873.121887,883.603210 
	C874.527954,886.163147 873.072693,888.060242 871.737976,889.987793 
	C850.123840,921.201843 828.525879,952.427124 806.866699,983.609985 
	C802.773987,989.502319 799.454956,989.473450 795.369080,983.582703 
	C773.825684,952.522705 752.335815,921.425598 730.800598,890.359985 
	C729.327209,888.234619 727.914612,886.118652 729.202454,883.483704 
	C730.554993,880.716492 733.216675,880.984070 735.737854,880.990723 
	C744.070068,881.012695 752.403931,880.906433 760.733704,881.049316 
	C763.482239,881.096436 764.497192,880.329163 764.485962,877.430298 
	C764.390381,852.767212 764.394104,828.103455 764.483826,803.440308 
	C764.494324,800.555542 763.499878,799.442261 760.672974,798.791870 
	C738.938354,793.791382 718.434814,785.707520 699.636841,773.590637 
	C697.496826,772.211243 696.300232,772.473755 694.612671,774.228210 
	C688.143921,780.952881 681.544861,787.553284 674.944702,794.150208 
	C666.036011,803.054443 657.309021,803.093506 648.454651,794.295471 
	C640.061646,785.955933 631.669373,777.615356 623.328674,769.223694 
	C614.747009,760.589600 614.801636,751.757019 623.415039,743.100586 
	C629.879639,736.603577 636.263733,730.021912 642.879028,723.681763 
	C645.092957,721.559937 645.356079,720.029846 643.690369,717.369873 
	C631.934448,698.596069 623.454834,678.441589 618.913025,656.714233 
	C618.323120,653.892090 617.027405,653.032349 614.154602,653.083679 
	C603.992554,653.265320 593.824463,653.229919 583.660156,653.127014 
	C573.584900,653.024902 568.666565,648.017639 568.651306,638.010620 
	C568.630371,624.345825 568.589294,610.680420 568.696106,597.016296 
	C568.776001,586.799072 574.663696,580.950745 584.847046,580.867065 
	C594.845154,580.784851 604.847717,580.698608 614.841003,580.930603 
	C618.035583,581.004761 619.154907,579.788208 619.764404,576.924377 
	C624.384216,555.217346 632.971558,535.105957 644.686707,516.325378 
	C646.302734,513.734680 645.796570,512.367554 643.825256,510.450623 
	C637.016296,503.829376 630.344299,497.065948 623.677490,490.300232 
	C615.825867,482.332184 615.766174,473.111481 623.582642,465.206818 
	C632.135986,456.556946 640.748108,447.963898 649.416443,439.429230 
	C657.939514,431.037567 666.820007,431.062225 675.202087,439.409027 
	C681.932800,446.111420 688.688232,452.791931 695.275574,459.633392 
	C697.127136,461.556335 698.438110,461.734589 700.697327,460.252167 
	C709.201355,454.671906 718.265869,450.103424 727.953613,445.928528 
z"/>
<path fill="#F7F9FA" opacity="1.000000" stroke="none" 
	d="
M648.004517,1029.155273 
	C644.175659,1029.146240 640.838318,1029.247681 637.511475,1029.104980 
	C630.858032,1028.819580 626.390808,1024.810059 626.209351,1018.178711 
	C625.913086,1007.355835 625.912842,996.513672 626.194946,985.690247 
	C626.381653,978.525208 630.929932,974.882935 639.019165,974.865845 
	C663.181274,974.814880 687.343506,974.845764 711.505737,974.845032 
	C721.824158,974.844727 732.142639,974.845032 742.662781,974.845032 
	C741.070923,980.199951 739.172058,985.146179 738.147461,990.267395 
	C731.225403,1024.866211 754.921570,1059.195801 789.478577,1064.876831 
	C825.146545,1070.740601 858.505676,1045.956787 863.198730,1010.346191 
	C864.587524,999.807983 863.237366,989.749146 859.338806,980.017822 
	C857.815247,976.214783 857.603149,974.708435 862.656738,974.739441 
	C895.982666,974.944092 929.310425,974.824280 962.637634,974.858704 
	C972.248535,974.868591 976.032898,978.662659 976.065430,988.136108 
	C976.096313,997.134399 976.092224,1006.132874 976.066528,1015.131165 
	C976.037720,1025.239746 972.223755,1029.110352 962.265320,1029.149902 
	C955.433289,1029.177002 948.596741,1029.298584 941.771240,1029.087158 
	C938.891602,1028.998169 937.601990,1029.888550 937.061829,1032.750366 
	C934.057556,1048.664429 927.770874,1063.257080 918.692871,1076.619385 
	C917.053040,1079.033081 917.073975,1080.409302 919.225525,1082.436279 
	C924.559387,1087.461792 929.707336,1092.691895 934.792725,1097.971924 
	C940.565918,1103.966064 940.542419,1109.550293 934.772705,1115.422241 
	C928.115906,1122.197021 921.417480,1128.932983 914.630493,1135.577026 
	C907.995178,1142.072388 902.544617,1142.034424 896.061707,1135.612061 
	C891.090088,1130.686890 886.091492,1125.785278 881.253540,1120.730835 
	C879.398804,1118.793091 878.033813,1118.175537 875.396484,1119.767212 
	C861.508728,1128.149170 846.832153,1134.757202 830.902527,1138.251465 
	C828.412476,1138.797485 827.906189,1140.141968 827.951843,1142.467041 
	C828.089233,1149.463013 828.048218,1156.463867 827.987915,1163.462036 
	C827.914246,1172.015137 823.915344,1176.096558 815.520325,1176.146240 
	C805.689087,1176.204468 795.857178,1176.195190 786.025879,1176.148315 
	C777.694763,1176.108521 773.747620,1172.467163 773.436340,1164.096924 
	C773.176453,1157.107666 773.200562,1150.095825 773.442017,1143.105713 
	C773.550964,1139.951660 772.409302,1138.726685 769.439758,1138.181763 
	C754.002380,1135.348877 739.867004,1129.244507 726.898560,1120.501221 
	C724.064209,1118.590210 722.319946,1118.348999 719.845459,1121.089111 
	C715.272400,1126.153320 710.340088,1130.903687 705.415283,1135.636963 
	C698.705627,1142.085693 693.366638,1142.019287 686.849243,1135.546021 
	C680.346741,1129.087524 673.873535,1122.599243 667.427979,1116.083984 
	C660.686523,1109.269653 660.665039,1103.925659 667.298096,1097.243286 
	C672.228333,1092.276367 677.069031,1087.212280 682.173645,1082.430786 
	C684.329956,1080.410889 684.354126,1078.874390 682.871582,1076.485352 
	C674.386353,1062.811157 668.286255,1048.097412 664.426025,1032.487427 
	C663.771729,1029.841553 662.605896,1028.982788 659.997009,1029.108398 
	C656.173035,1029.292480 652.333557,1029.155396 648.004517,1029.155273 
z"/>
<path fill="#2494A2" opacity="1.000000" stroke="none" 
	d="
M709.153625,563.205994 
	C727.339478,534.304138 752.985107,517.169373 786.431335,512.335754 
	C840.840759,504.472443 893.875549,542.609680 904.014587,596.545288 
	C914.791199,653.871826 880.425354,706.801514 823.517822,720.524902 
	C765.065552,734.620911 704.638306,693.743591 695.887573,634.279907 
	C692.191956,609.167114 696.542725,585.615479 709.153625,563.205994 
z"/>
<path fill="#F7F9FA" opacity="1.000000" stroke="none" 
	d="
M838.685059,574.285645 
	C870.775269,605.203918 861.047485,655.885559 820.372986,671.339050 
	C794.064636,681.334351 764.641479,670.632446 750.151062,645.797546 
	C736.326233,622.103394 742.031433,591.395447 762.971130,573.330139 
	C783.572388,555.556824 816.694031,554.462158 838.685059,574.285645 
z"/>
</svg>